<svg width="1390" height="1390" viewBox="0 0 1390 1390" fill="none" xmlns="http://www.w3.org/2000/svg">
<rect width="1390" height="1390" rx="300" fill="#2F80ED"/>
<g clip-path="url(#clip0_101_2)">
<path d="M695 1095C588.913 1095 487.172 1052.86 412.157 977.843C337.143 902.828 295 801.087 295 695C295 588.913 337.143 487.172 412.157 412.157C487.172 337.143 588.913 295 695 295C801.087 295 902.828 337.143 977.843 412.157C1052.86 487.172 1095 588.913 1095 695C1095 801.087 1052.86 902.828 977.843 977.843C902.828 1052.86 801.087 1095 695 1095ZM595 641.4C615.142 635.395 632.449 622.341 643.757 604.624C655.065 586.908 659.618 565.713 656.583 544.915C653.549 524.118 643.13 505.107 627.232 491.36C611.333 477.613 591.018 470.047 570 470.047C548.982 470.047 528.667 477.613 512.768 491.36C496.87 505.107 486.451 524.118 483.417 544.915C480.382 565.713 484.935 586.908 496.243 604.624C507.551 622.341 524.858 635.395 545 641.4V670C545 689.891 552.902 708.968 566.967 723.033C581.032 737.098 600.109 745 620 745H670V798.6C649.858 804.605 632.551 817.659 621.243 835.376C609.935 853.092 605.382 874.287 608.417 895.085C611.451 915.882 621.87 934.893 637.768 948.64C653.667 962.387 673.982 969.953 695 969.953C716.018 969.953 736.333 962.387 752.232 948.64C768.13 934.893 778.549 915.882 781.583 895.085C784.618 874.287 780.065 853.092 768.757 835.376C757.449 817.659 740.142 804.605 720 798.6V745H770C789.891 745 808.968 737.098 823.033 723.033C837.098 708.968 845 689.891 845 670V641.4C865.142 635.395 882.449 622.341 893.757 604.624C905.065 586.908 909.618 565.713 906.583 544.915C903.549 524.118 893.13 505.107 877.232 491.36C861.333 477.613 841.018 470.047 820 470.047C798.982 470.047 778.667 477.613 762.768 491.36C746.87 505.107 736.451 524.118 733.417 544.915C730.382 565.713 734.935 586.908 746.243 604.624C757.551 622.341 774.858 635.395 795 641.4V670C795 676.63 792.366 682.989 787.678 687.678C782.989 692.366 776.63 695 770 695H620C613.37 695 607.011 692.366 602.322 687.678C597.634 682.989 595 676.63 595 670V641.4Z" fill="white"/>
</g>
<defs>
<clipPath id="clip0_101_2">
<rect width="800" height="800" fill="white" transform="translate(295 295)"/>
</clipPath>
</defs>
</svg>
